grf
version=1
nRows=14
nColumns=37
inDegrees=no
endheader
time	ground_force_1_vx	ground_force_1_vy	ground_force_1_vz	ground_force_1_px	ground_force_1_py	ground_force_1_pz	ground_moment_1_mx	ground_moment_1_my	ground_moment_1_mz	ground_force_2_vx	ground_force_2_vy	ground_force_2_vz	ground_force_2_px	ground_force_2_py	ground_force_2_pz	ground_moment_2_mx	ground_moment_2_my	ground_moment_2_mz	ground_force_3_vx	ground_force_3_vy	ground_force_3_vz	ground_force_3_px	ground_force_3_py	ground_force_3_pz	ground_moment_3_mx	ground_moment_3_my	ground_moment_3_mz	ground_force_4_vx	ground_force_4_vy	ground_force_4_vz	ground_force_4_px	ground_force_4_py	ground_force_4_pz	ground_moment_4_mx	ground_moment_4_my	ground_moment_4_mz
      0.00000000	      0.00000000	     -0.00000000	      0.00000000	      0.00000000	      0.00000000	      0.00000000	      0.00000000	      0.00000000	      0.00000000	      2.96300077	     31.79272652	   -358.21017456	   -449.35831467	  -1110.13167603	      0.00000000	      0.00000000	      0.00000000	   1195.87735117	     -3.21505211	    -32.49666949	   -372.53347778	   -434.43423070	   -735.79731027	      0.00000000	      0.00000000	     -0.00000000	  -2792.43194052	      0.00000000	     -0.00000000	      0.00000000	      0.00000000	      0.00000000	      0.00000000	      0.00000000	      0.00000000	      0.00000000
      0.01000000	      0.00000000	     -0.00000000	      0.00000000	      0.00000000	      0.00000000	      0.00000000	      0.00000000	      0.00000000	      0.00000000	      2.74614596	     32.35667038	   -358.39166260	   -449.48182297	  -1111.30153976	      0.00000000	      0.00000000	      0.00000000	   1353.27693112	     -3.23142694	    -32.52640887	   -374.56521606	   -433.74397623	   -734.69308911	      0.00000000	      0.00000000	     -0.00000000	  -2753.07940628	      0.00000000	     -0.00000000	      0.00000000	      0.00000000	      0.00000000	      0.00000000	      0.00000000	      0.00000000	      0.00000000
      0.02000000	      0.00000000	     -0.00000000	      0.00000000	      0.00000000	      0.00000000	      0.00000000	      0.00000000	      0.00000000	      0.00000000	      2.78730917	     32.18022919	   -357.85754395	   -449.40661741	  -1111.45537390	      0.00000000	      0.00000000	      0.00000000	   1362.36972875	     -3.65873550	    -32.52621809	   -372.62051392	   -435.05554438	   -736.21827383	      0.00000000	      0.00000000	     -0.00000000	  -2719.12874757	      0.00000000	     -0.00000000	      0.00000000	      0.00000000	      0.00000000	      0.00000000	      0.00000000	      0.00000000	      0.00000000
      0.03000000	      0.00000000	     -0.00000000	      0.00000000	      0.00000000	      0.00000000	      0.00000000	      0.00000000	      0.00000000	      0.00000000	      2.58710480	     31.57576942	   -356.53167725	   -450.04244006	  -1110.75239150	      0.00000000	      0.00000000	      0.00000000	   1268.36475709	     -3.26063414	    -32.25695772	   -372.63006592	   -434.41041252	   -735.95075097	      0.00000000	      0.00000000	     -0.00000000	  -2717.03850341	      0.00000000	     -0.00000000	      0.00000000	      0.00000000	      0.00000000	      0.00000000	      0.00000000	      0.00000000	      0.00000000
      0.04000000	      0.00000000	     -0.00000000	      0.00000000	      0.00000000	      0.00000000	      0.00000000	      0.00000000	      0.00000000	      0.00000000	      2.74359965	     31.86336708	   -356.44537354	   -448.23396914	  -1111.30728488	      0.00000000	      0.00000000	      0.00000000	   1341.47897842	     -3.54843423	    -32.41228454	   -372.97946167	   -434.40625068	   -735.34899872	      0.00000000	      0.00000000	     -0.00000000	  -2748.00289519	      0.00000000	     -0.00000000	      0.00000000	      0.00000000	      0.00000000	      0.00000000	      0.00000000	      0.00000000	      0.00000000
      0.05000000	      0.00000000	     -0.00000000	      0.00000000	      0.00000000	      0.00000000	      0.00000000	      0.00000000	      0.00000000	      0.00000000	      2.65311670	     31.62050247	   -356.63409424	   -448.78798198	  -1111.76127079	      0.00000000	      0.00000000	      0.00000000	   1490.97828811	     -3.17178102	    -32.27938052	   -373.51220703	   -434.73997363	   -734.88050768	      0.00000000	     -0.00000000	     -0.00000000	  -2819.15988034	      0.00000000	     -0.00000000	      0.00000000	      0.00000000	      0.00000000	      0.00000000	      0.00000000	      0.00000000	      0.00000000
      0.06000000	      0.00000000	     -0.00000000	      0.00000000	      0.00000000	      0.00000000	      0.00000000	      0.00000000	      0.00000000	      0.00000000	      2.78759503	     31.68725777	   -356.27487183	   -448.21937784	  -1111.21965709	      0.00000000	      0.00000000	      0.00000000	   1398.80317564	     -2.79257509	    -32.34631323	   -372.80307007	   -434.74586825	   -735.39012809	      0.00000000	      0.00000000	      0.00000000	  -2926.46659724	      0.00000000	     -0.00000000	      0.00000000	      0.00000000	      0.00000000	      0.00000000	      0.00000000	      0.00000000	      0.00000000
      0.07000000	      0.00000000	     -0.00000000	      0.00000000	      0.00000000	      0.00000000	      0.00000000	      0.00000000	      0.00000000	      0.00000000	      2.56497478	     31.75253296	   -355.82745361	   -448.60872022	  -1111.66922304	      0.00000000	      0.00000000	      0.00000000	   1439.36829252	     -3.65908048	    -32.48054091	   -373.07043457	   -434.26929395	   -735.47018991	      0.00000000	      0.00000000	     -0.00000000	  -2763.81655097	      0.00000000	     -0.00000000	      0.00000000	      0.00000000	      0.00000000	      0.00000000	      0.00000000	      0.00000000	      0.00000000
      0.08000000	      0.00000000	     -0.00000000	      0.00000000	      0.00000000	      0.00000000	      0.00000000	      0.00000000	      0.00000000	      0.00000000	      2.09625721	     31.23963737	   -355.38693237	   -448.70394121	  -1111.02839252	      0.00000000	      0.00000000	     -0.00000000	   1299.03798629	     -3.79255388	    -32.52495542	   -372.80728149	   -434.03223425	   -735.05605300	      0.00000000	      0.00000000	     -0.00000000	  -2681.03747626	      0.00000000	     -0.00000000	      0.00000000	      0.00000000	      0.00000000	      0.00000000	      0.00000000	      0.00000000	      0.00000000
      0.09000000	      0.00000000	     -0.00000000	      0.00000000	      0.00000000	      0.00000000	      0.00000000	      0.00000000	      0.00000000	      0.00000000	      2.43107557	     31.57465172	   -354.94586182	   -448.75276871	  -1111.38865687	      0.00000000	      0.00000000	      0.00000000	   1364.06623141	     -3.65882157	    -32.59110228	   -372.37100220	   -433.27241497	   -735.35728154	      0.00000000	      0.00000000	     -0.00000000	  -2739.30463374	      0.00000000	     -0.00000000	      0.00000000	      0.00000000	      0.00000000	      0.00000000	      0.00000000	      0.00000000	      0.00000000
      0.10000000	      0.00000000	     -0.00000000	      0.00000000	      0.00000000	      0.00000000	      0.00000000	      0.00000000	      0.00000000	      0.00000000	      2.29685068	     31.41839600	   -354.32736206	   -448.78681109	  -1110.18782209	      0.00000000	      0.00000000	     -0.00000000	   1334.33654894	     -4.16955085	    -32.14895593	   -371.93417358	   -433.58362176	   -735.31477747	      0.00000000	     -0.00000000	     -0.00000000	  -2626.63770972	      0.00000000	     -0.00000000	      0.00000000	      0.00000000	      0.00000000	      0.00000000	      0.00000000	      0.00000000	      0.00000000
      0.11000000	      0.00000000	     -0.00000000	      0.00000000	      0.00000000	      0.00000000	      0.00000000	      0.00000000	      0.00000000	      0.00000000	      2.67586231	     31.57501030	   -355.74096680	   -448.12982640	  -1112.77423470	      0.00000000	      0.00000000	      0.00000000	   1516.19895992	     -4.19162941	    -32.76701318	   -371.06137085	   -434.13659206	   -736.43182250	      0.00000000	      0.00000000	     -0.00000000	  -2887.01284123	      0.00000000	     -0.00000000	      0.00000000	      0.00000000	      0.00000000	      0.00000000	      0.00000000	      0.00000000	      0.00000000
      0.12000000	      0.00000000	     -0.00000000	      0.00000000	      0.00000000	      0.00000000	      0.00000000	      0.00000000	      0.00000000	      0.00000000	      2.14247966	     31.23913574	   -355.38803101	   -447.82949184	  -1111.50453902	      0.00000000	      0.00000000	      0.00000000	   1266.66506736	     -4.28083176	    -32.14952050	   -371.06048584	   -433.95371654	   -735.54004673	      0.00000000	      0.00000000	     -0.00000000	  -2843.19365076	      0.00000000	     -0.00000000	      0.00000000	      0.00000000	      0.00000000	      0.00000000	      0.00000000	      0.00000000	      0.00000000
      0.13000000	      0.00000000	     -0.00000000	      0.00000000	      0.00000000	      0.00000000	      0.00000000	      0.00000000	      0.00000000	      0.00000000	      2.13900328	     31.86155891	   -355.74557495	   -447.76142377	  -1111.12199428	      0.00000000	      0.00000000	     -0.00000000	   1437.56578973	     -4.67857692	    -32.45785100	   -370.97503662	   -433.88655018	   -735.56188729	      0.00000000	      0.00000000	     -0.00000000	  -2754.48784091	      0.00000000	     -0.00000000	      0.00000000	      0.00000000	      0.00000000	      0.00000000	      0.00000000	      0.00000000	      0.00000000
